<svg xmlns="http://www.w3.org/2000/svg" viewBox="0 0 512 512"><defs>
    <radialGradient id="ig" cx="50%" cy="40%" r="60%"><stop offset="0" stop-color="#f2c94c" stop-opacity=".42"/><stop offset=".7" stop-color="#f2c94c" stop-opacity="0"/></radialGradient>
    <radialGradient id="ir" cx="50%" cy="110%" r="70%"><stop offset="0" stop-color="#c8323c" stop-opacity=".55"/><stop offset=".75" stop-color="#c8323c" stop-opacity="0"/></radialGradient>
    <radialGradient id="im" cx="50%" cy="45%" r="55%"><stop offset="0" stop-color="#fff" stop-opacity="1"/><stop offset="1" stop-color="#fff" stop-opacity="0"/></radialGradient>
    <mask id="imask"><rect width="512" height="512" fill="url(#im)"/></mask>
  </defs>
  <rect width="512" height="512" fill="#0b0a0e"/><rect width="512" height="512" fill="url(#ig)"/><rect width="512" height="512" fill="url(#ir)"/><g mask="url(#imask)"><path d="M256 230 L636 230 L634.8285868185886 259.81445637658106 Z" fill="#f2c94c" opacity="0.16"/><path d="M256 230 L630.226946144639 295.98630751343353 L623.8961033436809 325.14440154068774 Z" fill="#f2c94c" opacity="0.08"/><path d="M256 230 L613.0831958986453 359.9676544637541 L601.7852829330864 387.5834322093708 Z" fill="#f2c94c" opacity="0.16"/><path d="M256 230 L585.0896534380868 420 L569.167951676366 445.23437003143647 Z" fill="#f2c94c" opacity="0.08"/><path d="M256 230 L547.0968883852116 474.2592916808849 L527.035170678589 496.34552043394336 Z" fill="#f2c94c" opacity="0.16"/><path d="M256 230 L500.259291680885 521.0968883852116 L476.6671231701571 539.3638969754013 Z" fill="#f2c94c" opacity="0.08"/><path d="M256 230 L446 559.0896534380867 L419.59421678715216 572.982408052947 Z" fill="#f2c94c" opacity="0.16"/><path d="M256 230 L385.9676544637541 587.0831958986452 L357.5505829097376 596.1795722192767 Z" fill="#f2c94c" opacity="0.08"/><path d="M256 230 L321.98630751343353 604.226946144639 L292.4213859576852 608.2505553795279 Z" fill="#f2c94c" opacity="0.16"/><path d="M256 230 L256 610 L226.18554362341894 608.8285868185886 Z" fill="#f2c94c" opacity="0.08"/><path d="M256 230 L190.01369248656647 604.226946144639 L160.85559845931226 597.8961033436809 Z" fill="#f2c94c" opacity="0.16"/><path d="M256 230 L126.03234553624588 587.0831958986453 L98.41656779062916 575.7852829330864 Z" fill="#f2c94c" opacity="0.08"/><path d="M256 230 L66.00000000000009 559.0896534380868 L40.765629968563616 543.167951676366 Z" fill="#f2c94c" opacity="0.16"/><path d="M256 230 L11.740708319115043 521.0968883852116 L-10.345520433943364 501.035170678589 Z" fill="#f2c94c" opacity="0.08"/><path d="M256 230 L-35.09688838521163 474.259291680885 L-53.363896975401246 450.6671231701572 Z" fill="#f2c94c" opacity="0.16"/><path d="M256 230 L-73.08965343808671 420 L-86.98240805294705 393.59421678715216 Z" fill="#f2c94c" opacity="0.08"/><path d="M256 230 L-101.08319589864516 359.9676544637542 L-110.17957221927674 331.55058290973767 Z" fill="#f2c94c" opacity="0.16"/><path d="M256 230 L-118.22694614463904 295.98630751343364 L-122.2505553795279 266.42138595768523 Z" fill="#f2c94c" opacity="0.08"/><path d="M256 230 L-124 230.00000000000006 L-122.82858681858863 200.18554362341897 Z" fill="#f2c94c" opacity="0.16"/><path d="M256 230 L-118.22694614463904 164.0136924865664 L-111.89610334368092 134.8555984593122 Z" fill="#f2c94c" opacity="0.08"/><path d="M256 230 L-101.08319589864522 100.03234553624591 L-89.78528293308642 72.41656779062919 Z" fill="#f2c94c" opacity="0.16"/><path d="M256 230 L-73.08965343808666 39.99999999999997 L-57.16795167636593 14.765629968563474 Z" fill="#f2c94c" opacity="0.08"/><path d="M256 230 L-35.096888385211685 -14.259291680884928 L-15.035170678589054 -36.34552043394336 Z" fill="#f2c94c" opacity="0.16"/><path d="M256 230 L11.740708319114987 -61.09688838521163 L35.33287682984269 -79.36389697540113 Z" fill="#f2c94c" opacity="0.08"/><path d="M256 230 L65.99999999999983 -99.0896534380866 L92.40578321284752 -112.98240805294688 Z" fill="#f2c94c" opacity="0.16"/><path d="M256 230 L126.03234553624563 -127.0831958986451 L154.449417090262 -136.17957221927662 Z" fill="#f2c94c" opacity="0.08"/><path d="M256 230 L190.01369248656647 -144.22694614463904 L219.57861404231505 -148.25055537952795 Z" fill="#f2c94c" opacity="0.16"/><path d="M256 230 L255.99999999999994 -150 L285.8144563765812 -148.82858681858863 Z" fill="#f2c94c" opacity="0.08"/><path d="M256 230 L321.9863075134334 -144.2269461446391 L351.14440154068774 -137.89610334368092 Z" fill="#f2c94c" opacity="0.16"/><path d="M256 230 L385.96765446375423 -127.08319589864516 L413.5834322093708 -115.78528293308648 Z" fill="#f2c94c" opacity="0.08"/><path d="M256 230 L446 -99.08965343808666 L471.23437003143636 -83.16795167636599 Z" fill="#f2c94c" opacity="0.16"/><path d="M256 230 L500.2592916808849 -61.096888385211685 L522.3455204339432 -41.03517067858911 Z" fill="#f2c94c" opacity="0.08"/><path d="M256 230 L547.0968883852115 -14.259291680885042 L565.3638969754011 9.332876829842633 Z" fill="#f2c94c" opacity="0.16"/><path d="M256 230 L585.0896534380865 39.99999999999983 L598.9824080529469 66.40578321284752 Z" fill="#f2c94c" opacity="0.08"/><path d="M256 230 L613.083195898645 100.03234553624563 L622.1795722192767 128.44941709026196 Z" fill="#f2c94c" opacity="0.16"/><path d="M256 230 L630.226946144639 164.01369248656647 L634.2505553795279 193.57861404231502 Z" fill="#f2c94c" opacity="0.08"/></g><g transform="translate(256 256) scale(1) translate(-256 -256)">
        <g transform="translate(78 392) rotate(-18) scale(1 .82)">
    <circle r="43" fill="#000" opacity=".5"/>
    <circle r="40" fill="#e8b93a" stroke="#7a4f0a" stroke-width="4.8"/>
    <circle r="28.799999999999997" fill="none" stroke="#fff3b0" stroke-opacity=".7" stroke-width="3.2"/>
    <path d="M-20 -18 A28 28 0 0 1 12 -24.8" stroke="#fff" stroke-opacity=".8" stroke-width="4.8" fill="none" stroke-linecap="round"/>
  </g><g transform="translate(440 118) rotate(14) scale(1 .82)">
    <circle r="33" fill="#000" opacity=".5"/>
    <circle r="30" fill="#e8b93a" stroke="#7a4f0a" stroke-width="3.5999999999999996"/>
    <circle r="21.599999999999998" fill="none" stroke="#fff3b0" stroke-opacity=".7" stroke-width="2.4"/>
    <path d="M-15 -13.5 A21 21 0 0 1 9 -18.6" stroke="#fff" stroke-opacity=".8" stroke-width="3.5999999999999996" fill="none" stroke-linecap="round"/>
  </g><g transform="translate(452 410) rotate(22) scale(1 .82)">
    <circle r="27" fill="#000" opacity=".5"/>
    <circle r="24" fill="#e8b93a" stroke="#7a4f0a" stroke-width="2.88"/>
    <circle r="17.28" fill="none" stroke="#fff3b0" stroke-opacity=".7" stroke-width="1.92"/>
    <path d="M-12 -10.8 A16.799999999999997 16.799999999999997 0 0 1 7.199999999999999 -14.879999999999999" stroke="#fff" stroke-opacity=".8" stroke-width="2.88" fill="none" stroke-linecap="round"/>
  </g>
        <g transform="translate(258 268) rotate(-6)"><svg x="-216.640625" y="-235" width="433.28125" height="470" class="pf-chara" data-face="grin" viewBox="-8 -6 118 128" xmlns="http://www.w3.org/2000/svg" aria-hidden="true">
  <defs>
    <linearGradient id="pf-c1-g" x1="0" y1="0" x2="0" y2="1">
      <stop offset="0" stop-color="#ffe9a0"/><stop offset=".18" stop-color="#f2c94c"/><stop offset=".62" stop-color="#d9a52a"/><stop offset="1" stop-color="#9c6a14"/>
    </linearGradient>
    <linearGradient id="pf-c1-s" x1="0" y1="0" x2="0" y2="1">
      <stop offset="0" stop-color="#2a2f3a"/><stop offset=".5" stop-color="#0d0f14"/><stop offset="1" stop-color="#05060a"/>
    </linearGradient>
    <radialGradient id="pf-c1-r" cx=".35" cy=".35" r=".7"><stop offset="0" stop-color="#fff"/><stop offset=".45" stop-color="#c4ccd8"/><stop offset="1" stop-color="#4d5563"/></radialGradient>
  </defs>
  <!-- 影 -->
  <ellipse cx="50" cy="116" rx="34" ry="3.5" fill="#000" opacity=".35"/>
  <!-- 足 -->
  <rect x="25" y="103" width="15" height="11" rx="3" fill="#3b4250" stroke="#140b05" stroke-width="2.6"/>
  <rect x="60" y="103" width="15" height="11" rx="3" fill="#3b4250" stroke="#140b05" stroke-width="2.6"/>
  <!-- 肩のトゲ（世紀末の名残） -->
  <path d="M10 26 L5 15 L18 21 Z" fill="#c4ccd8" stroke="#140b05" stroke-width="2.2" stroke-linejoin="round"/>
  <path d="M90 26 L95 15 L82 21 Z" fill="#c4ccd8" stroke="#140b05" stroke-width="2.2" stroke-linejoin="round"/>
  <g stroke="#ff4a4a" stroke-width="2.4" stroke-linecap="round" opacity=".9"><path d="M38 6 L33 2"/><path d="M62 6 L67 2"/><path d="M50 1 V-3"/></g><path d="M41 15 Q41 4 50 4 Q59 4 59 15 Z" fill="#ff3344" stroke="#140b05" stroke-width="2.6"/>
    <path d="M45 13 Q45 7 49 6.5" stroke="#fff" stroke-opacity=".7" stroke-width="2" fill="none" stroke-linecap="round"/>
    <rect x="38" y="14" width="24" height="5" rx="2" fill="#c4ccd8" stroke="#140b05" stroke-width="2.2"/>
  <!-- 筐体 -->
  <rect x="7" y="18" width="86" height="88" rx="15" fill="url(#pf-c1-g)" stroke="#140b05" stroke-width="3.2"/>
  <path d="M14 24 Q50 19 86 24" stroke="#fff" stroke-opacity=".55" stroke-width="2.4" fill="none" stroke-linecap="round"/>
  <!-- 傷とへこみ -->
  <path d="M12 92 L20 88 M78 96 L86 92 M15 40 L18 33" stroke="#7a4f0a" stroke-width="1.3" stroke-linecap="round" opacity=".8"/>
  <path d="M74 99 q4 -3 8 0" stroke="#7a4f0a" stroke-width="1.6" fill="none" opacity=".7"/>
  <!-- おでこの保留ランプ -->
  <rect x="21" y="21" width="58" height="12" rx="6" fill="#1a0d08" stroke="#140b05" stroke-width="2.2"/>
  <circle cx="29.5" cy="27" r="3.9" fill="#ff3344" stroke="#140b05" stroke-width="1.2"/><circle cx="28.3" cy="25.8" r="1.2" fill="#fff" opacity=".8"/><circle cx="43.2" cy="27" r="3.9" fill="#ff3344" stroke="#140b05" stroke-width="1.2"/><circle cx="42" cy="25.8" r="1.2" fill="#fff" opacity=".8"/><circle cx="56.9" cy="27" r="3.9" fill="#3a8bff" stroke="#140b05" stroke-width="1.2"/><circle cx="55.699999999999996" cy="25.8" r="1.2" fill="#fff" opacity=".8"/><circle cx="70.6" cy="27" r="3.9" fill="#3a3027" stroke="#140b05" stroke-width="1.2"/>
  <circle cx="12" cy="24" r="2.3" fill="url(#pf-c1-r)" stroke="#140b05" stroke-width="1.1"/><circle cx="88" cy="24" r="2.3" fill="url(#pf-c1-r)" stroke="#140b05" stroke-width="1.1"/><circle cx="12" cy="100" r="2.3" fill="url(#pf-c1-r)" stroke="#140b05" stroke-width="1.1"/><circle cx="88" cy="100" r="2.3" fill="url(#pf-c1-r)" stroke="#140b05" stroke-width="1.1"/>
  <!-- 顔の液晶（黒いガラス。角にひび） -->
  <rect x="14" y="35" width="72" height="41" rx="7" fill="url(#pf-c1-s)" stroke="#140b05" stroke-width="2.4"/>
  <path d="M80 36.5 L76 42 L80 45 L75 51" stroke="#9fb3c8" stroke-width="1" fill="none" opacity=".7"/>
  <g class="pf-eye">
    <rect x="19" y="46" width="21" height="24" rx="3.5" fill="#f6f1e3" stroke="#140b05" stroke-width="2.6"/>
    <rect x="20.5" y="47.5" width="18" height="5" rx="2" fill="#000" opacity=".12"/>
    <text x="29.5" y="64.8" text-anchor="middle" font-size="17" font-weight="900" fill="#d4142e" font-family="'Noto Sans JP', sans-serif">中</text>
    
  </g><g class="pf-eye">
    <rect x="60" y="46" width="21" height="24" rx="3.5" fill="#f6f1e3" stroke="#140b05" stroke-width="2.6"/>
    <rect x="61.5" y="47.5" width="18" height="5" rx="2" fill="#000" opacity=".12"/>
    <text x="70.5" y="64.8" text-anchor="middle" font-size="17" font-weight="900" fill="#d4142e" font-family="'Noto Sans JP', sans-serif">中</text>
    
  </g>
  <circle cx="50" cy="58" r="3.2" fill="url(#pf-c1-r)" stroke="#140b05" stroke-width="1.2"/>
  <path d="M21 40 L39 42" stroke="#c4ccd8" stroke-width="3.6" stroke-linecap="round"/><path d="M61 39 L79 37" stroke="#c4ccd8" stroke-width="3.6" stroke-linecap="round"/>
  <!-- 頬のばんそうこう -->
  <g transform="rotate(-18 22 82)"><rect x="14" y="78.5" width="16" height="7" rx="3" fill="#f3d7b0" stroke="#140b05" stroke-width="1.6"/><path d="M20 80.5 L24 84 M24 80.5 L20 84" stroke="#a8754a" stroke-width="1.1"/></g>
  <!-- 払い出し口（口） -->
  <rect x="30" y="80" width="40" height="17" rx="7" fill="#e7ecf2" stroke="#140b05" stroke-width="2.4"/>
  <rect x="32" y="81.5" width="36" height="4" rx="2" fill="#fff" opacity=".7"/>
  <path d="M35 84 Q50 99 65 84 Z" fill="#140b05"/>
        <path d="M38.5 85.2 H61.5 L60 88.5 H40 Z" fill="#fff"/>
        <rect x="52" y="85.2" width="4.6" height="3.3" fill="#ffc83a"/>
        <path d="M44 85.2 V88.4 M48 85.2 V88.4 M56.6 85.2 V88.4" stroke="#b9b29c" stroke-width=".8"/>
  <!-- 左手（小さな鉄の手）と右手のレバー：体の横から出す -->
  <path d="M7 64 L0 74" stroke="#140b05" stroke-width="7" stroke-linecap="round"/><path d="M7 64 L0 74" stroke="#c4ccd8" stroke-width="3.4" stroke-linecap="round"/>
  <circle cx="-1" cy="77" r="5.2" fill="#c4ccd8" stroke="#140b05" stroke-width="2.4"/>
  <circle cx="7" cy="64" r="3" fill="url(#pf-c1-r)" stroke="#140b05" stroke-width="1.4"/>
  <path d="M93 62 L100 44" stroke="#140b05" stroke-width="7" stroke-linecap="round"/><path d="M93 62 L100 44" stroke="#c4ccd8" stroke-width="3.4" stroke-linecap="round"/><circle cx="101" cy="38.5" r="7" fill="#e0262f" stroke="#140b05" stroke-width="2.6"/><circle cx="98.8" cy="36.3" r="2" fill="#fff" opacity=".8"/>
  <circle cx="93" cy="62" r="3.4" fill="url(#pf-c1-r)" stroke="#140b05" stroke-width="1.4"/>
  
</svg></g>
      </g></svg>